<?xml version="1.0" encoding="UTF-8"?>
<svg xmlns="http://www.w3.org/2000/svg" xmlns:xlink="http://www.w3.org/1999/xlink" width="32pt" height="32pt" viewBox="0 0 32 32" version="1.1">
<defs>
<linearGradient id="linear0" gradientUnits="userSpaceOnUse" x1="0" y1="256.492048" x2="512.000196" y2="256.492048" gradientTransform="matrix(0.0625,0,0,0.0625,0,0.03125)">
<stop offset="0" style="stop-color:rgb(52.941176%,94.509804%,98.823529%);stop-opacity:1;"/>
<stop offset="0.2557" style="stop-color:rgb(49.803922%,83.137255%,98.431373%);stop-opacity:1;"/>
<stop offset="0.5295" style="stop-color:rgb(47.058824%,73.72549%,98.431373%);stop-opacity:1;"/>
<stop offset="0.7844" style="stop-color:rgb(45.490196%,68.235294%,98.039216%);stop-opacity:1;"/>
<stop offset="1" style="stop-color:rgb(45.098039%,66.27451%,98.039216%);stop-opacity:1;"/>
</linearGradient>
</defs>
<g id="surface1">
<path style=" stroke:none;fill-rule:nonzero;fill:url(#linear0);" d="M 8.992188 32.0625 C 8.34375 32.0625 7.703125 31.808594 7.222656 31.328125 L 1.101562 25.21875 C 0.390625 24.507812 0 23.566406 0 22.5625 C 0 21.558594 0.390625 20.617188 1.101562 19.90625 L 7.222656 13.796875 C 7.945312 13.078125 9.015625 12.867188 9.957031 13.257812 C 10.894531 13.644531 11.5 14.554688 11.5 15.566406 L 11.5 21.3125 C 21.425781 21.3125 29.5 13.238281 29.5 3.3125 L 29.5 1.3125 C 29.5 0.621094 30.058594 0.0625 30.75 0.0625 C 31.441406 0.0625 32 0.621094 32 1.3125 L 32 3.3125 C 32 8.789062 29.867188 13.9375 25.996094 17.808594 C 22.125 21.679688 16.976562 23.8125 11.5 23.8125 C 10.121094 23.8125 9 22.691406 9 21.3125 L 9 15.566406 C 8.996094 15.566406 8.996094 15.566406 8.992188 15.5625 C 8.992188 15.566406 8.992188 15.566406 8.992188 15.566406 L 2.867188 21.675781 C 2.628906 21.914062 2.5 22.226562 2.5 22.5625 C 2.5 22.898438 2.628906 23.210938 2.867188 23.449219 L 8.992188 29.558594 L 8.992188 29.5625 C 8.996094 29.5625 8.996094 29.558594 9 29.558594 L 9 28.1875 C 9 27.496094 9.558594 26.9375 10.25 26.9375 C 10.941406 26.9375 11.5 27.496094 11.5 28.1875 L 11.5 29.558594 C 11.5 30.574219 10.894531 31.480469 9.957031 31.867188 C 9.644531 32 9.316406 32.0625 8.992188 32.0625 Z M 8.992188 32.0625 "/>
</g>
</svg>
