<?xml version="1.0" encoding="UTF-8"?>
<svg xmlns="http://www.w3.org/2000/svg" xmlns:xlink="http://www.w3.org/1999/xlink" width="141pt" height="100pt" viewBox="0 0 141 100" version="1.1">
<g id="surface1">
<path style=" stroke:none;fill-rule:nonzero;fill:rgb(38.039216%,85.490196%,98.431373%);fill-opacity:1;" d="M 111.566406 49.808594 C 111.566406 44.347656 104.753906 39.171875 94.308594 35.964844 C 96.71875 25.28125 95.648438 16.78125 90.929688 14.058594 C 89.839844 13.421875 88.566406 13.121094 87.179688 13.121094 L 87.179688 16.867188 C 87.949219 16.867188 88.566406 17.015625 89.085938 17.300781 C 91.363281 18.613281 92.351562 23.601562 91.582031 30.019531 C 91.398438 31.597656 91.09375 33.261719 90.726562 34.957031 C 87.445312 34.152344 83.863281 33.53125 80.097656 33.125 C 77.839844 30.019531 75.496094 27.195312 73.136719 24.726562 C 78.59375 19.636719 83.714844 16.847656 87.195312 16.847656 L 87.195312 13.101562 C 82.59375 13.101562 76.566406 16.394531 70.476562 22.105469 C 64.382812 16.429688 58.355469 13.167969 53.753906 13.167969 L 53.753906 16.914062 C 57.21875 16.914062 62.355469 19.6875 67.8125 24.742188 C 65.46875 27.214844 63.128906 30.019531 60.902344 33.125 C 57.117188 33.53125 53.535156 34.152344 50.257812 34.972656 C 49.871094 33.292969 49.585938 31.664062 49.386719 30.101562 C 48.597656 23.683594 49.570312 18.695312 51.828125 17.371094 C 52.332031 17.066406 52.984375 16.933594 53.753906 16.933594 L 53.753906 13.1875 C 52.347656 13.1875 51.078125 13.488281 49.972656 14.128906 C 45.269531 16.847656 44.214844 25.332031 46.640625 35.980469 C 36.230469 39.207031 29.453125 44.363281 29.453125 49.808594 C 29.453125 55.265625 36.261719 60.441406 46.707031 63.648438 C 44.296875 74.332031 45.367188 82.832031 50.089844 85.554688 C 51.175781 86.191406 52.449219 86.496094 53.855469 86.496094 C 58.457031 86.496094 64.484375 83.203125 70.574219 77.492188 C 76.667969 83.167969 82.691406 86.425781 87.296875 86.425781 C 88.703125 86.425781 89.972656 86.125 91.078125 85.484375 C 95.78125 82.765625 96.835938 74.28125 94.410156 63.632812 C 104.785156 60.421875 111.566406 55.25 111.566406 49.808594 Z M 89.773438 38.601562 C 89.152344 40.769531 88.382812 43.003906 87.511719 45.238281 C 86.828125 43.894531 86.109375 42.550781 85.320312 41.207031 C 84.550781 39.863281 83.730469 38.550781 82.910156 37.273438 C 85.289062 37.628906 87.582031 38.066406 89.773438 38.601562 Z M 82.105469 56.492188 C 80.800781 58.761719 79.460938 60.910156 78.074219 62.910156 C 75.578125 63.128906 73.050781 63.246094 70.507812 63.246094 C 67.980469 63.246094 65.453125 63.128906 62.976562 62.925781 C 61.585938 60.925781 60.230469 58.792969 58.925781 56.542969 C 57.652344 54.34375 56.5 52.109375 55.445312 49.855469 C 56.484375 47.605469 57.652344 45.355469 58.910156 43.15625 C 60.214844 40.886719 61.554688 38.738281 62.941406 36.738281 C 65.4375 36.519531 67.964844 36.402344 70.507812 36.402344 C 73.035156 36.402344 75.5625 36.519531 78.039062 36.722656 C 79.429688 38.71875 80.785156 40.851562 82.089844 43.105469 C 83.363281 45.304688 84.515625 47.539062 85.570312 49.789062 C 84.515625 52.039062 83.363281 54.292969 82.105469 56.492188 Z M 87.511719 54.308594 C 88.417969 56.558594 89.1875 58.8125 89.824219 60.996094 C 87.628906 61.53125 85.320312 61.984375 82.925781 62.339844 C 83.746094 61.042969 84.566406 59.71875 85.335938 58.355469 C 86.109375 57.011719 86.828125 55.652344 87.511719 54.308594 Z M 70.542969 72.234375 C 68.984375 70.621094 67.429688 68.824219 65.890625 66.855469 C 67.394531 66.925781 68.933594 66.976562 70.492188 66.976562 C 72.066406 66.976562 73.621094 66.941406 75.144531 66.855469 C 73.636719 68.824219 72.082031 70.621094 70.542969 72.234375 Z M 58.089844 62.339844 C 55.710938 61.984375 53.417969 61.546875 51.226562 61.011719 C 51.847656 58.84375 52.617188 56.609375 53.488281 54.375 C 54.171875 55.71875 54.890625 57.0625 55.679688 58.40625 C 56.464844 59.75 57.269531 61.0625 58.089844 62.339844 Z M 70.457031 27.382812 C 72.015625 28.992188 73.570312 30.792969 75.109375 32.757812 C 73.605469 32.6875 72.066406 32.640625 70.507812 32.640625 C 68.933594 32.640625 67.378906 32.671875 65.855469 32.757812 C 67.363281 30.792969 68.917969 28.992188 70.457031 27.382812 Z M 58.074219 37.273438 C 57.253906 38.570312 56.433594 39.894531 55.664062 41.257812 C 54.890625 42.601562 54.171875 43.945312 53.488281 45.289062 C 52.582031 43.039062 51.8125 40.785156 51.175781 38.601562 C 53.371094 38.082031 55.679688 37.628906 58.074219 37.273438 Z M 42.925781 58.308594 C 37 55.769531 33.167969 52.445312 33.167969 49.808594 C 33.167969 47.167969 37 43.828125 42.925781 41.308594 C 44.363281 40.683594 45.9375 40.132812 47.5625 39.609375 C 48.515625 42.902344 49.769531 46.328125 51.328125 49.839844 C 49.789062 53.335938 48.550781 56.746094 47.613281 60.019531 C 45.953125 59.5 44.382812 58.929688 42.925781 58.308594 Z M 51.929688 82.3125 C 49.652344 81 48.667969 76.011719 49.4375 69.59375 C 49.621094 68.015625 49.921875 66.351562 50.289062 64.65625 C 53.570312 65.460938 57.152344 66.085938 60.917969 66.488281 C 63.175781 69.59375 65.519531 72.417969 67.878906 74.886719 C 62.425781 79.976562 57.300781 82.765625 53.820312 82.765625 C 53.066406 82.75 52.433594 82.597656 51.929688 82.3125 Z M 91.632812 69.511719 C 92.417969 75.929688 91.445312 80.917969 89.1875 82.246094 C 88.683594 82.546875 88.03125 82.679688 87.261719 82.679688 C 83.796875 82.679688 78.660156 79.910156 73.203125 74.851562 C 75.546875 72.382812 77.890625 69.578125 80.117188 66.46875 C 83.898438 66.066406 87.480469 65.445312 90.761719 64.621094 C 91.144531 66.320312 91.445312 67.949219 91.632812 69.511719 Z M 98.074219 58.308594 C 96.636719 58.929688 95.0625 59.484375 93.4375 60.003906 C 92.484375 56.710938 91.230469 53.285156 89.671875 49.773438 C 91.210938 46.277344 92.449219 42.871094 93.386719 39.59375 C 95.046875 40.113281 96.617188 40.683594 98.089844 41.308594 C 104.015625 43.84375 107.847656 47.167969 107.847656 49.808594 C 107.832031 52.445312 104 55.785156 98.074219 58.308594 Z M 53.738281 13.167969 Z M 53.738281 13.167969 "/>
<path style=" stroke:none;fill-rule:nonzero;fill:rgb(38.039216%,85.490196%,98.431373%);fill-opacity:1;" d="M 78.140625 49.808594 C 78.140625 54.046875 74.714844 57.484375 70.492188 57.484375 C 66.265625 57.484375 62.84375 54.046875 62.84375 49.808594 C 62.84375 45.566406 66.265625 42.128906 70.492188 42.128906 C 74.714844 42.128906 78.140625 45.566406 78.140625 49.808594 Z M 78.140625 49.808594 "/>
</g>
</svg>
